# File created by Blade
# Date/Time:  Thu Jan 22 19:08:58 2015
# Frame Rate: 120.000 fps
#------------------------------------------------------
:FULLY-SPECIFIED
:DEGREES
2402
root -2.401147 33.052194 -0.364461 9.157589 -0.990010 2.816338
RightUpLeg -1.982299 -9.935989 -3.110124
RightLeg -1.841792 -0.000000 0.000000
RightFoot -10.971549 -5.694469 4.955844
RightToeBase 5.855798 -0.000000 -0.000000
LeftUpLeg -2.863304 4.954856 2.775807
LeftLeg 1.022717 -0.000000 -0.000000
LeftFoot -10.020748 -1.456815 -10.838354
LeftToeBase 7.833897 -0.000000 -0.000000
Spine -10.342585 -2.022449 -0.540255
RightShoulder -13.355705 -19.816745 -8.624542
RightArm 20.854638 -11.886149 78.145125
RightForeArm -2.494969 0.000000 9.433455
RightHand 13.766307 -0.000000 5.078956
RightHandThumb1 -24.326973 -0.000000 -32.862282
LeftShoulder -20.896573 7.014570 14.934417
LeftArm 6.824682 7.741530 -84.072498
LeftForeArm 11.754996 0.000000 2.156244
LeftHand -1.880552 0.000000 -13.069380
LeftHandThumb1 -26.253704 0.000000 33.147579
Head 2.006058 5.187931 -2.515932
2403
root -2.403346 33.050126 -0.360305 9.149849 -0.943085 2.805641
RightUpLeg -1.963295 -9.983384 -3.091875
RightLeg -1.830319 -0.000000 0.000000
RightFoot -10.992363 -5.684085 4.969258
RightToeBase 5.833324 -0.000000 -0.000000
LeftUpLeg -2.859993 4.919964 2.796882
LeftLeg 1.032179 -0.000000 -0.000000
LeftFoot -10.048839 -1.466928 -10.854884
LeftToeBase 7.843850 -0.000000 -0.000000
Spine -10.370932 -2.068960 -0.550331
RightShoulder -13.384473 -19.903846 -8.378176
RightArm 20.977906 -13.303664 78.120214
RightForeArm -2.168662 -0.000000 9.488942
RightHand 13.534481 0.000000 5.375871
RightHandThumb1 -24.326973 -0.000000 -32.862282
LeftShoulder -20.778717 6.993250 14.880204
LeftArm 6.733884 8.561870 -84.611835
LeftForeArm 11.593436 -0.000000 2.193176
LeftHand -1.891350 -0.000000 -13.260887
LeftHandThumb1 -26.253704 0.000000 33.147579
Head 2.054596 5.213145 -2.465375
2404
root -2.404363 33.048540 -0.355297 9.138191 -0.904386 2.804602
RightUpLeg -1.942148 -10.014447 -3.088864
RightLeg -1.813414 -0.000000 0.000000
RightFoot -11.021991 -5.692188 4.964766
RightToeBase 5.849139 -0.000000 -0.000000
LeftUpLeg -2.840420 4.896172 2.806219
LeftLeg 1.020226 -0.000000 -0.000000
LeftFoot -10.055883 -1.477936 -10.861693
LeftToeBase 7.859630 -0.000000 -0.000000
Spine -10.396358 -2.137246 -0.559768
RightShoulder -13.388024 -19.978440 -8.176544
RightArm 21.117370 -14.495321 78.186670
RightForeArm -2.190287 -0.000000 9.487776
RightHand 13.381603 -0.000000 5.855443
RightHandThumb1 -24.326973 -0.000000 -32.862282
LeftShoulder -20.699941 7.008476 14.823454
LeftArm 6.678153 9.294730 -85.154953
LeftForeArm 11.540079 0.000000 2.213669
LeftHand -1.741437 -0.000000 -13.360345
LeftHandThumb1 -26.253704 0.000000 33.147579
Head 2.111514 5.274522 -2.436490
2405
root -2.405331 33.047401 -0.350639 9.131612 -0.876583 2.797314
RightUpLeg -1.925279 -10.029780 -3.081971
RightLeg -1.802828 -0.000000 0.000000
RightFoot -11.046918 -5.680622 4.985805
RightToeBase 5.876782 -0.000000 -0.000000
LeftUpLeg -2.823139 4.872514 2.821343
LeftLeg 1.004707 -0.000000 -0.000000
LeftFoot -10.035587 -1.509052 -10.943683
LeftToeBase 7.758775 -0.000000 -0.000000
Spine -10.428346 -2.206613 -0.557434
RightShoulder -13.391735 -20.058263 -8.005074
RightArm 21.260162 -15.699452 78.232964
RightForeArm -2.173303 -0.000000 9.551726
RightHand 13.204978 0.000000 6.425635
RightHandThumb1 -24.326973 -0.000000 -32.862282
LeftShoulder -20.613598 7.024392 14.781003
LeftArm 6.580897 9.986668 -85.703465
LeftForeArm 11.494323 -0.000000 2.269523
LeftHand -1.692361 -0.000000 -13.623070
LeftHandThumb1 -26.253704 0.000000 33.147579
Head 2.160339 5.369031 -2.413553
2406
root -2.409655 33.046511 -0.348774 9.124100 -0.842616 2.790720
RightUpLeg -1.918831 -10.063008 -3.064085
RightLeg -1.781369 -0.000000 0.000000
RightFoot -11.047984 -5.685129 4.931831
RightToeBase 5.771997 -0.000000 -0.000000
LeftUpLeg -2.812883 4.836394 2.841787
LeftLeg 0.994046 -0.000000 -0.000000
LeftFoot -10.033500 -1.503481 -10.939652
LeftToeBase 7.688245 -0.000000 -0.000000
Spine -10.448358 -2.285743 -0.574818
RightShoulder -13.413582 -20.140485 -7.816398
RightArm 21.436218 -16.934903 78.240298
RightForeArm -2.091572 0.000000 9.627039
RightHand 13.103645 0.000000 6.949198
RightHandThumb1 -24.326973 -0.000000 -32.862282
LeftShoulder -20.565582 7.073328 14.731939
LeftArm 6.571775 10.525837 -86.219171
LeftForeArm 11.425993 -0.000000 2.328118
LeftHand -1.597001 -0.000000 -13.880553
LeftHandThumb1 -26.253704 0.000000 33.147579
Head 2.204462 5.445000 -2.368046
2407
root -2.411886 33.046270 -0.345742 9.121076 -0.812358 2.783384
RightUpLeg -1.915322 -10.089800 -3.052518
RightLeg -1.754536 -0.000000 0.000000
RightFoot -11.080982 -5.679591 4.982382
RightToeBase 5.884875 -0.000000 -0.000000
LeftUpLeg -2.805102 4.813824 2.856406
LeftLeg 0.986055 -0.000000 -0.000000
LeftFoot -10.041133 -1.508723 -10.965185
LeftToeBase 7.760712 -0.000000 -0.000000
Spine -10.478790 -2.370318 -0.581113
RightShoulder -13.425654 -20.266352 -7.652125
RightArm 21.641848 -18.115767 78.241544
RightForeArm -1.987536 0.000000 9.726286
RightHand 12.979166 0.000000 7.318621
RightHandThumb1 -24.326973 -0.000000 -32.862282
LeftShoulder -20.528397 7.095313 14.696590
LeftArm 6.507429 11.122648 -86.729704
LeftForeArm 11.382860 0.000000 2.433452
LeftHand -1.644136 0.000000 -14.246400
LeftHandThumb1 -26.253704 0.000000 33.147579
Head 2.256312 5.523501 -2.335312
2408
root -2.414748 33.046761 -0.342132 9.118943 -0.790157 2.773495
RightUpLeg -1.907634 -10.123834 -3.037266
RightLeg -1.746557 -0.000000 0.000000
RightFoot -11.066525 -5.645117 4.968276
RightToeBase 5.790976 -0.000000 -0.000000
LeftUpLeg -2.792470 4.791022 2.875416
LeftLeg 0.970240 -0.000000 -0.000000
LeftFoot -10.034584 -1.497557 -10.988604
LeftToeBase 7.752601 -0.000000 -0.000000
Spine -10.514215 -2.438463 -0.586992
RightShoulder -13.429025 -20.385921 -7.505010
RightArm 21.821258 -19.229744 78.258315
RightForeArm -1.869681 0.000000 9.815936
RightHand 12.900416 -0.000000 7.668397
RightHandThumb1 -24.326973 -0.000000 -32.862282
LeftShoulder -20.495855 7.111249 14.652767
LeftArm 6.472725 11.750057 -87.208302
LeftForeArm 11.419667 -0.000000 2.528593
LeftHand -1.594008 -0.000000 -14.548224
LeftHandThumb1 -26.253704 0.000000 33.147579
Head 2.307175 5.587273 -2.329008
2409
root -2.416972 33.047472 -0.339660 9.122246 -0.765227 2.766632
RightUpLeg -1.911469 -10.151969 -3.023143
RightLeg -1.724555 -0.000000 0.000000
RightFoot -11.078323 -5.641560 4.960861
RightToeBase 5.805813 -0.000000 -0.000000
LeftUpLeg -2.788566 4.762577 2.888777
LeftLeg 0.958490 -0.000000 -0.000000
LeftFoot -10.061054 -1.462180 -10.897872
LeftToeBase 7.841382 -0.000000 -0.000000
Spine -10.550072 -2.506456 -0.595808
RightShoulder -13.416499 -20.462927 -7.358780
RightArm 21.938053 -20.207833 78.315067
RightForeArm -1.781569 -0.000000 9.889671
RightHand 13.010001 -0.000000 8.070052
RightHandThumb1 -24.326973 -0.000000 -32.862282
LeftShoulder -20.474917 7.123067 14.605764
LeftArm 6.438434 12.448444 -87.648621
LeftForeArm 11.452429 -0.000000 2.659112
LeftHand -1.612096 -0.000000 -14.800437
LeftHandThumb1 -26.253704 0.000000 33.147579
Head 2.351921 5.651383 -2.305020
2410
root -2.419034 33.048033 -0.338418 9.134035 -0.750327 2.761325
RightUpLeg -1.926702 -10.183009 -3.012810
RightLeg -1.706823 -0.000000 0.000000
RightFoot -11.073895 -5.614578 4.983396
RightToeBase 5.765423 -0.000000 -0.000000
LeftUpLeg -2.797806 4.744575 2.898113
LeftLeg 0.948594 -0.000000 -0.000000
LeftFoot -10.023565 -1.470130 -10.971708
LeftToeBase 7.742485 -0.000000 -0.000000
Spine -10.595814 -2.560019 -0.605722
RightShoulder -13.392807 -20.572926 -7.224857
RightArm 22.060271 -21.113662 78.367146
RightForeArm -1.511666 -0.000000 9.988369
RightHand 13.009660 0.000000 8.363487
RightHandThumb1 -24.326973 -0.000000 -32.862282
LeftShoulder -20.469149 7.153925 14.539609
LeftArm 6.464656 13.166464 -88.053036
LeftForeArm 11.536718 -0.000000 2.779241
LeftHand -1.638604 -0.000000 -15.120778
LeftHandThumb1 -26.253704 0.000000 33.147579
Head 2.400504 5.713203 -2.288022
